<svg id="vector" width="7" height="46" version="1.1" viewBox="0 0 7 46" xmlns="http://www.w3.org/2000/svg"><g fill="#f0f2f2"><path id="path_0" d="m0.945 37.478v5.1245c0 1.673 1.356 3.022 3.019 3.022 1.662 0 3.018-1.358 3.018-3.022v-5.1245z"/><path id="path_1" d="m0.945 32.554v5.224h6.037v-5.224z"/><path id="path_2" d="m6.982 32.854v-5.225h-6.037v5.225z"/><path id="path_3" d="m6.982 27.93v-5.225h-6.037v5.225z"/><path id="path_4" d="m6.982 23.005v-5.225h-6.037v5.225z"/><path id="path_5" d="m6.982 18.08v-5.224h-6.037v5.224z"/><path id="path_6" d="m6.982 13.156v-5.225h-6.037v5.225z"/><path id="path_7" d="m6.982 8.232v-5.025c0-1.084-0.58-2.083-1.509-2.621-0.938-0.538-2.089-0.538-3.018 0-0.938 0.538-1.51 1.537-1.51 2.621v5.025z"/></g></svg>
