<svg id="vector" width="98" height="44" version="1.1" viewBox="0 0 98 44" xmlns="http://www.w3.org/2000/svg"><g id="g1" fill="#f0f2f2"><path id="path_0" d="m92.242 33.394c1.4921 1.644 2.9358 3.3441 4.3277 5.0988 1.041 1.306 0.819 3.21-0.486 4.251-1.304 1.042-3.206 0.82-4.246-0.486-1.3078-1.6492-2.6642-3.247-4.0662-4.7921z"/><path id="path_1" d="m87.772 37.466c-1.402-1.5451-2.8496-3.0376-4.3398-4.4763l4.1916-4.3582c1.5858 1.5307 3.1264 3.1188 4.6186 4.7628z"/><path id="path_2" d="m83.432 32.99c-1.4901-1.4387-3.0228-2.8235-4.595-4.1532l3.8967-4.624c1.673 1.4149 3.3041 2.8883 4.8899 4.419z"/><path id="path_3" d="m78.837 28.836c-1.5722-1.3298-3.1838-2.6045-4.8318-3.8229l3.5868-4.8687c1.7537 1.2964 3.4687 2.6527 5.1417 4.0676z"/><path id="path_4" d="m74.005 25.013c-1.648-1.2184-3.3325-2.3806-5.0502-3.4853l3.2631-5.0917c1.8279 1.1754 3.6203 2.4119 5.374 3.7083z"/><path id="path_5" d="m68.955 21.528c-1.7178-1.1047-3.4689-2.1519-5.2503-3.1405l2.9267-5.2927c1.8955 1.0518 3.7588 2.166 5.5867 3.3414z"/><path id="path_6" d="m63.705 18.388c-1.7814-0.98854-3.5931-1.9184-5.4319-2.7884l2.5787-5.471c1.9567 0.9256 3.8844 1.9149 5.7799 2.9667z"/><path id="path_7" d="m58.273 15.599c-1.8389-0.86996-3.705-1.68-5.5952-2.429l2.2202-5.6264c2.0113 0.79684 3.997 1.6587 5.9536 2.5843z"/><path id="path_8" d="m52.678 13.17c-1.8902-0.74895-3.8046-1.4368-5.7401-2.0623l1.8525-5.7582c2.0595 0.66551 4.0965 1.3973 6.1078 2.1942z"/><path id="path_9" d="m46.938 11.108c-1.9355-0.62553-3.892-1.1887-5.8666-1.6884l1.4766-5.8661c2.1011 0.5316 4.183 1.1308 6.2425 1.7963z"/><path id="path_10" d="m41.071 9.4196c-1.9746-0.49968-3.9671-0.93583-5.9747-1.3072l1.0936-5.9496c2.1362 0.39511 4.2565 0.8591 6.3576 1.3907z"/><path id="path_11" d="m35.096 8.1124c-2.0075-0.37141-4.03-0.67809-6.0644-0.91881l0.70478-6.0081c2.1648 0.25604 4.317 0.58226 6.4532 0.97736z"/><path id="path_12" d="m29.032 7.1936c-2.0344-0.24072-4.0806-0.4155-6.1357-0.52311l0.31116-6.0413c2.187 0.1144 4.3645 0.30026 6.5293 0.5563z"/><path id="path_13" d="m22.896 6.6705c-2.0551-0.10761-4.119-0.14806-6.1886-0.12014l-0.08611-6.0487c2.2026-0.029826 4.399 0.013102 6.5859 0.1275z"/><path id="path_14" d="m16.708 6.5503c-2.0697 0.027921-4.1451 0.12421-6.2232 0.29009l-0.48587-6.0297c2.2117-0.17662 4.4204-0.27921 6.623-0.30903z"/><path id="path_15" d="m10.484 6.8404c-2.0781 0.16587-4.1589 0.40133-6.2394 0.70758-1.066 0.154-2.14-0.264-2.806-1.118-0.665-0.854-0.835-1.989-0.443-2.996 0.401-1.008 1.305-1.725 2.37-1.878l-8e-3 8e-3c2.2142-0.326 4.4288-0.57667 6.6405-0.75329z"/></g></svg>
