<svg id="vector" width="166" height="206" version="1.1" viewBox="0 0 166 206" xmlns="http://www.w3.org/2000/svg"><g id="g1" fill="#ffffff"><path id="path_0" d="m6.6094 138.69h-6.1094v19.713c0 3.21 1.1009 6.3301 3.1309 8.8301 19.38 23.97 48.539 37.889 79.369 37.889 11.525 0 22.815-1.9484 33.449-5.6367l-2.002-5.7734c-9.9986 3.4689-20.614 5.3008-31.447 5.3008-28.98 0-56.401-13.099-74.631-35.619-1.14-1.42-1.7598-3.1802-1.7598-4.9902z"/><path id="path_1" d="m113.44 194.03 1.9375 5.7949c18.241-6.1024 34.614-17.285 46.99-32.592 2.03-2.5 3.1309-5.6201 3.1309-8.8301v-51.82h-0.01c0-1.69-1.3708-3.0508-3.0508-3.0508-1.69 0-3.0488 1.3708-3.0488 3.0508v51.82c0 1.81-0.61976 3.5702-1.7598 4.9902-11.642 14.381-27.039 24.897-44.189 30.637z"/><path id="path_2" d="m82.35 0.96094c-24.869 0.16254-48.6 9.3731-66.945 25.588l4.0391 4.5723c17.25-15.245 39.565-23.906 62.938-24.061 28.76-0.18 56.089 12.54 74.459 34.67 0.7 0.83 1.7894 1.2386 2.8594 1.0586 1.08-0.18 1.9816-0.92922 2.3516-1.9492 0.38-1.02 0.18828-2.1698-0.51172-3.0098-19.54-23.53-48.61-37.069-79.189-36.869z"/><path id="path_3" d="m20.223 30.467-3.9902-4.6113c-4.5366 3.9248-8.7678 8.2537-12.602 12.994-2.03 2.5-3.1309 5.6201-3.1309 8.8301v92.383h6.1094v-92.393c0-1.81 0.61977-3.5705 1.7598-4.9805 3.6059-4.459 7.5859-8.5311 11.854-12.223z"/></g></svg>
