<svg id="vector" width="8" height="49" version="1.1" viewBox="0 0 8 49" xmlns="http://www.w3.org/2000/svg"><style id="style18">.measure-arrow
{
}
.measure-label
{

}
.measure-line
{
}</style><g fill="#ffffff"><path id="path_0" d="m7.041 42.611h-6.0996v3.0723c0 1.688 1.3688 3.0488 3.0488 3.0488 1.689 0 3.0508-1.3688 3.0508-3.0488z"/><path id="path_1" d="m7.041 36.613h-6.0996v6.248h6.0996z"/><path id="path_2" d="m7.041 30.615h-6.0996v6.248h6.0996z"/><path id="path_3" d="m7.041 24.619h-6.0996v6.2461h6.0996z"/><path id="path_4" d="m7.041 18.621h-6.0996v6.248h6.0996z"/><path id="path_5" d="m7.041 12.623h-6.0996v6.248h6.0996z"/><path id="path_6" d="m7.041 6.627h-6.0996v6.2461h6.0996z"/><path id="path_7" d="m3.9902 0.75391c-1.68 0-3.0488 1.3708-3.0488 3.0508v3.0723h6.0996v-3.0723c0-1.689-1.3708-3.0508-3.0508-3.0508z"/></g></svg>
