<svg id="vector" xmlns="http://www.w3.org/2000/svg" width="166" height="206" viewBox="0 0 166 206"><path fill="#ffffff" d="M165.49,106.58C165.49,104.89 164.12,103.53 162.44,103.53C160.75,103.53 159.39,104.9 159.39,106.58V158.4C159.39,160.21 158.77,161.97 157.63,163.39C139.4,185.91 111.98,199.01 83,199.01C54.02,199.01 26.6,185.91 8.37,163.39C7.23,161.97 6.61,160.21 6.61,158.4V47.67C6.61,45.86 7.23,44.1 8.37,42.69C26.46,20.32 53.62,7.25 82.38,7.06C111.14,6.88 138.47,19.6 156.84,41.73C157.54,42.56 158.63,42.97 159.7,42.79C160.78,42.61 161.68,41.86 162.05,40.84C162.43,39.82 162.24,38.67 161.54,37.83C142,14.3 112.93,0.76 82.35,0.96C51.75,1.16 22.87,15.06 3.63,38.85C1.6,41.35 0.5,44.47 0.5,47.68V158.4C0.5,161.61 1.6,164.73 3.63,167.23C23.01,191.2 52.17,205.12 83,205.12C113.83,205.12 142.99,191.2 162.37,167.23C164.4,164.73 165.5,161.61 165.5,158.4V106.58H165.49Z" id="path_0"/></svg>