<svg id="vector" xmlns="http://www.w3.org/2000/svg" width="253" height="253" viewBox="0 0 253 253"><g fill="none" stroke="#1b1d1f"><path fill="#00000000" d="M126.39,251.83C195.65,251.83 251.81,195.68 251.81,126.42C251.81,57.15 195.65,1 126.39,1C57.12,1 0.97,57.15 0.97,126.42C0.97,195.68 57.12,251.83 126.39,251.83Z" stroke="#1b1d1f" stroke-width="1.5" stroke-linecap="round" stroke-linejoin="round" id="path_0"/><path fill="#00000000" d="M104.2,40.3C104.2,43.98 101.22,46.95 97.54,46.95C93.86,46.95 90.88,43.98 90.88,40.3C90.88,36.61 93.86,33.64 97.54,33.64C101.22,33.64 104.2,36.61 104.2,40.3Z" stroke="#1b1d1f" stroke-width="1.5" stroke-linecap="round" stroke-linejoin="round" id="path_1"/><path fill="#00000000" d="M184.1,170.24C208.3,170.24 227.92,150.62 227.92,126.42C227.92,102.22 208.3,82.6 184.1,82.6" stroke="#1b1d1f" stroke-width="1.5" stroke-linecap="round" stroke-linejoin="round" id="path_2"/><path fill="#00000000" d="M68.68,82.6C44.48,82.6 24.86,102.22 24.86,126.42C24.86,150.62 44.48,170.24 68.68,170.24" stroke="#1b1d1f" stroke-width="1.5" stroke-linecap="round" stroke-linejoin="round" id="path_3"/><path fill="#00000000" d="M184.1,170.24C208.3,170.24 227.92,150.62 227.92,126.42C227.92,102.22 208.3,82.6 184.1,82.6H68.68C44.48,82.6 24.86,102.22 24.86,126.42C24.86,150.62 44.48,170.24 68.68,170.24H184.1Z" stroke="#1b1d1f" stroke-width="1.5" stroke-linecap="round" stroke-linejoin="round" id="path_4"/><path fill="#00000000" d="M126.39,153.93H68.68C53.47,153.93 41.16,141.61 41.16,126.42C41.16,111.21 53.49,98.9 68.68,98.9H126.39C141.6,98.9 153.91,111.22 153.91,126.42C153.91,141.61 141.58,153.93 126.39,153.93Z" stroke="#1b1d1f" stroke-width="1.5" stroke-linecap="round" stroke-linejoin="round" id="path_5"/><path fill="#00000000" d="M184.1,149.5C196.85,149.5 207.19,139.17 207.19,126.42C207.19,113.67 196.85,103.33 184.1,103.33C171.35,103.33 161.02,113.67 161.02,126.42C161.02,139.17 171.35,149.5 184.1,149.5Z" stroke="#1b1d1f" stroke-width="1.5" stroke-linecap="round" stroke-linejoin="round" id="path_6"/></g></svg>