<svg id="vector" width="39" height="48" version="1.1" viewBox="0 0 39 48" xmlns="http://www.w3.org/2000/svg"><g fill="#fff"><path id="path_0" d="m33.532 33.076-4.4062 3.3223-4.4531 3.3555 3.9151 5.1932c1.848 2.459 5.3086 2.9437 7.7676 1.0957 2.458-1.848 2.9437-5.3246 1.0957-7.7676z"/><path id="path_1" d="m26.773 24.107-4.3828 3.3027-4.4766 3.375 7.7571 10.293 4.4531-3.3555 4.4062-3.3223z"/><path id="path_2" d="m20.017 15.142-4.3574 3.2852-4.502 3.3926 7.7533 10.288 4.4766-3.375 4.3828-3.3027z"/><path id="path_3" d="m13.259 6.1792-4.332 3.2637-4.5254 3.4141 7.7571 10.291 4.502-3.3926 4.3574-3.2852z"/><path id="path_4" d="m6.2832 0.26172c-1.2404-0.054539-2.5082 0.30673-3.584 1.1152-2.459 1.848-2.9437 5.3246-1.0957 7.7676l3.801 5.0456 4.5273-3.4141 4.332-3.2637-3.7971-5.0397c-1.0395-1.3832-2.5888-2.1408-4.1836-2.2109z"/></g></svg>
