<svg id="vector" width="31" height="117" version="1.1" viewBox="0 0 31 117" xmlns="http://www.w3.org/2000/svg"><g fill="#ffffff"><path id="path_0" d="m21.234 0.53711c-0.36891 0.01334-0.74273 0.062344-1.1152 0.15234-2.97 0.72-4.8084 3.7312-4.0684 6.7012 0.46448 1.895 0.87764 3.7956 1.2578 5.7012l10.881-2.1699v-2e-3c-0.41022-2.0586-0.85832-4.1128-1.3594-6.1601-0.63-2.5988-3.0134-4.316-5.5957-4.2227z"/><path id="path_1" d="m27.885 9.4492-5.4102 1.1367-5.4453 1.1465c0.81702 3.8856 1.4679 7.7916 1.9355 11.707l5.6113-0.67188 5.4004-0.64453c-0.50559-4.2392-1.2082-8.4668-2.0918-12.674z"/><path id="path_2" d="m29.785 20.662-10.998 1.4277c0.50862 3.9204 0.84686 7.851 1.0078 11.781l5.7754-0.23633 5.3066-0.21875c-0.17378-4.2548-0.54198-8.5097-1.0918-12.754z"/><path id="path_3" d="m30.807 31.957-11.076 0.56445c0.20155 3.9492 0.22655 7.899 0.08008 11.838l5.8906 0.21875 5.1895 0.19336c0.15871-4.2639 0.13364-8.5393-0.08398-12.814z"/><path id="path_4" d="m30.947 43.279-5.2129-0.14062-5.8711-0.15625c-0.1061 3.9418-0.39451 7.8721-0.8457 11.783l11.016 1.2695c0.48812-4.2338 0.79906-8.4888 0.91406-12.756z"/><path id="path_5" d="m30.203 54.545-5.1152-0.53711-5.9141-0.61914c-0.41234 3.9298-0.999 7.8384-1.7559 11.717l5.8379 1.1387 5.0488 0.98438c0.81855-4.1982 1.4523-8.4297 1.8984-12.684z"/><path id="path_6" d="m28.576 65.771-5.0488-0.93164-5.8574-1.082c-0.71578 3.878-1.5945 7.7269-2.6504 11.533l10.689 2.9668c1.1421-4.1207 2.0929-8.2881 2.8672-12.486z"/><path id="path_7" d="m26.098 76.795-5.0215-1.3359-5.6973-1.5176c-1.0133 3.8059-2.1943 7.5727-3.543 11.287l10.432 3.7871c1.4588-4.0218 2.734-8.0998 3.8301-12.221z"/><path id="path_8" d="m22.76 87.641-5.0117-1.7617-5.4551-1.9199c-1.3035 3.7055-2.776 7.3581-4.4082 10.953l10.105 4.5898c1.7655-3.8927 3.3595-7.8488 4.7695-11.861z"/><path id="path_9" d="m18.592 98.182-10.152-4.4863c-1.5888 3.594-3.3478 7.1253-5.2598 10.59l9.7227 5.3652c2.0679-3.7514 3.9709-7.5752 5.6895-11.467z"/><path id="path_10" d="m13.615 108.35-9.7773-5.2656c-0.92552 1.7183-1.8849 3.4222-2.8887 5.1055-1.56 2.63-0.69836 6.0513 1.9316 7.6113 2.63 1.57 6.0394 0.71008 7.6094-1.9199 1.0863-1.8236 2.1234-3.6697 3.125-5.5312z"/></g></svg>
