<?xml version="1.0" encoding="UTF-8" standalone="no"?>
<svg
   id="vector"
   width="71"
   height="87"
   viewBox="0 0 71 87"
   version="1.1"
   sodipodi:docname="led_a_zones.svg"
   inkscape:version="1.4 (e7c3feb100, 2024-10-09)"
   xmlns:inkscape="http://www.inkscape.org/namespaces/inkscape"
   xmlns:sodipodi="http://sodipodi.sourceforge.net/DTD/sodipodi-0.dtd"
   xmlns="http://www.w3.org/2000/svg"
   xmlns:svg="http://www.w3.org/2000/svg">
  <sodipodi:namedview
     id="namedview1"
     pagecolor="#ffffff"
     bordercolor="#000000"
     borderopacity="0.25"
     inkscape:showpageshadow="2"
     inkscape:pageopacity="0.0"
     inkscape:pagecheckerboard="0"
     inkscape:deskcolor="#d1d1d1"
     inkscape:zoom="4"
     inkscape:cx="44.625"
     inkscape:cy="38.5"
     inkscape:window-width="1920"
     inkscape:window-height="1014"
     inkscape:window-x="1920"
     inkscape:window-y="120"
     inkscape:window-maximized="1"
     inkscape:current-layer="vector" />
  <defs
     id="defs1" />
  <path
     d="M 10.947266,82.380859 5.6914062,80.607422 0.43945313,78.833984 c -0.050273,0.148919 -0.10449103,0.296188 -0.15429688,0.445313 -0.971,2.898 0.61276562,6.046578 3.50976565,7.017578 2.898,0.971 6.044625,-0.596766 7.0156251,-3.509766 v -0.01367 c 0.04394,-0.131496 0.09238,-0.261254 0.136719,-0.392578 z"
     style="fill:#f2f0f4"
     id="path_0" />
  <path
     d="M 12.677734,77.556641 7.4804687,75.578125 2.3144531,73.613281 C 1.6019568,75.485412 0.92199242,77.372533 0.28515625,79.279297 0.21906054,79.476563 0.16782758,79.676183 0.125,79.875 l 10.519531,3.337891 c 0.05926,-0.139023 0.117373,-0.279854 0.166016,-0.425782 v -0.01367 c 0.586398,-1.754761 1.211281,-3.493627 1.867187,-5.216796 z"
     style="fill:#f2f0f4"
     id="path_1" />
  <path
     d="M 14.630859,72.724609 9.4765625,70.529297 4.4257812,68.380859 C 3.5666896,70.399215 2.7538869,72.439732 1.984375,74.501953 l 5.1777344,1.931641 5.2109376,1.943359 c 0.710706,-1.904313 1.464274,-3.788339 2.257812,-5.652344 z"
     style="fill:#f2f0f4"
     id="path_2" />
  <path
     d="M 16.78125,67.933594 11.669922,65.519531 6.7539062,63.195312 c -0.9409074,1.991076 -1.8374767,4.007167 -2.6894531,6.044922 l 5.0683594,2.119141 5.1621095,2.158203 c 0.787372,-1.882901 1.616644,-3.744062 2.486328,-5.583984 z"
     style="fill:#f2f0f4"
     id="path_3" />
  <path
     d="m 19.107422,63.246094 -5.0625,-2.638672 -4.7734376,-2.486328 C 8.254571,60.072609 7.2791676,62.04825 6.3496094,64.048828 l 4.9414066,2.296875 5.115234,2.376953 c 0.859046,-1.848425 1.761303,-3.673334 2.701172,-5.476562 z"
     style="fill:#f2f0f4"
     id="path_4" />
  <path
     d="m 21.646484,58.585937 -4.998047,-2.861328 -4.626953,-2.648437 c -1.108394,1.936481 -2.1692858,3.901183 -3.1894527,5.890625 l 4.7988277,2.460937 5.070313,2.601563 c 0.942486,-1.837571 1.921266,-3.654575 2.945312,-5.44336 z"
     style="fill:#f2f0f4"
     id="path_5" />
  <path
     d="m 24.341797,54.097656 -9.40625,-5.878906 c -1.163159,1.860324 -2.283811,3.748156 -3.363281,5.662109 L 16.21875,56.5 l 5.013672,2.828125 c 0.997581,-1.768374 2.0344,-3.511554 3.109375,-5.230469 z"
     style="fill:#f2f0f4"
     id="path_6" />
  <path
     d="M 27.210937,49.705078 22.369141,46.408203 18.042969,43.462891 C 16.805428,45.28038 15.608295,47.126263 14.453125,49 l 4.494141,2.771484 4.947265,3.048828 c 1.067358,-1.730972 2.172911,-3.436147 3.316406,-5.115234 z"
     style="fill:#f2f0f4"
     id="path_7" />
  <path
     d="m 30.246094,45.429687 -4.728516,-3.498046 -4.189453,-3.097657 c -1.310005,1.771378 -2.58148,3.572136 -3.810547,5.402344 l 4.351563,2.921875 4.857421,3.261719 c 1.135484,-1.690553 2.309267,-3.353962 3.519532,-4.990235 z"
     style="fill:#f2f0f4"
     id="path_8" />
  <path
     d="m 33.449219,41.267578 -4.59375,-3.683594 -4.0625,-3.255859 c -1.381076,1.722581 -2.723768,3.475769 -4.025391,5.259766 l 4.214844,3.076171 4.746094,3.460938 c 1.202596,-1.648006 2.444699,-3.266118 3.720703,-4.857422 z"
     style="fill:#f2f0f4"
     id="path_9" />
  <path
     d="m 36.798828,37.25 -4.4375,-3.851563 -3.943359,-3.419921 c -1.440908,1.660579 -2.841083,3.354376 -4.205078,5.078125 l 4.083984,3.230468 4.617187,3.652344 c 1.25971,-1.591695 2.554065,-3.156058 3.884766,-4.689453 z"
     style="fill:#f2f0f4"
     id="path_10" />
  <path
     d="M 40.294922,33.380859 36.027344,29.375 32.205078,25.791016 c -1.503358,1.602628 -2.969993,3.238316 -4.398437,4.90625 l 3.958984,3.388671 4.46875,3.828125 c 1.319343,-1.540346 2.672049,-3.053167 4.060547,-4.533203 z"
     style="fill:#f2f0f4"
     id="path_11" />
  <path
     d="M 43.955078,29.628906 39.875,25.490234 36.167969,21.730469 c -1.570745,1.54889 -3.106287,3.131169 -4.603516,4.748047 l 3.841797,3.55664 4.296875,3.980469 c 1.383096,-1.49346 2.800977,-2.956096 4.251953,-4.386719 z"
     style="fill:#f2f0f4"
     id="path_12" />
  <path
     d="m 47.761719,26.017578 -3.88086,-4.255859 -3.59375,-3.941407 c -1.628138,1.484809 -3.220525,3.003836 -4.777343,4.558594 l 3.728515,3.732422 4.109375,4.117188 c 1.438348,-1.436279 2.909852,-2.839354 4.414063,-4.210938 z"
     style="fill:#f2f0f4"
     id="path_13" />
  <path
     d="m 51.658203,22.59375 -3.673828,-4.355469 -3.480469,-4.123047 c -1.670906,1.40984 -3.311337,2.855248 -4.914062,4.335938 l 3.61914,3.916015 3.910157,4.234375 c 1.481256,-1.36826 2.994806,-2.705149 4.539062,-4.007812 z"
     style="fill:#f2f0f4"
     id="path_14" />
  <path
     d="m 55.722656,19.302734 -6.818359,-8.751953 c -1.745127,1.359922 -3.455404,2.756968 -5.132813,4.191407 l 3.498047,4.089843 3.712891,4.341797 c 1.549204,-1.324505 3.128554,-2.61551 4.740234,-3.871094 z"
     style="fill:#f2f0f4"
     id="path_15" />
  <path
     d="M 59.933594,16.15625 56.667969,11.607422 53.460937,7.1445312 c -1.795482,1.2897663 -3.559032,2.6183123 -5.289062,3.9843748 l 6.876953,8.707031 v 0 C 56.64688,18.574472 58.275145,17.3471 59.933594,16.15625 Z"
     style="fill:#f2f0f4"
     id="path_16" />
  <path
     d="M 64.283203,13.162109 61.214844,8.515625 58.166016,3.9023438 C 56.316073,5.1242486 54.49726,6.3850912 52.710937,7.6855469 l 6.53125,8.9687501 v 0 c 1.650287,-1.200913 3.332014,-2.364023 5.041016,-3.492188 z"
     style="fill:#f2f0f4"
     id="path_17" />
  <path
     d="M 68.691406,10.335938 63.082031,0.82421875 C 62.898393,0.91034839 62.716195,1.0050789 62.539062,1.1132812 60.795553,2.177834 59.079961,3.2794526 57.388672,4.4121094 l 3.078125,4.5957031 3.097656,4.6269535 c 1.561756,-1.045361 3.145959,-2.062597 4.755859,-3.044922 0.129441,-0.07905 0.250478,-0.166265 0.371094,-0.253906 z"
     style="fill:#f2f0f4"
     id="path_18" />
  <path
     d="m 65.681641,0.30664063 c -1.06759,-0.0498926 -2.161578,0.20739062 -3.142579,0.80664057 -0.136443,0.08331 -0.270121,0.1701738 -0.40625,0.2539063 l 5.816407,9.4550785 v 0 c 0.124436,-0.07649 0.246372,-0.15632 0.371093,-0.232422 2.615001,-1.5970003 3.444657,-5.0119534 1.847657,-7.6269534 -0.99875,-1.634375 -2.707012,-2.57309568 -4.486328,-2.65624997 z"
     style="fill:#f2f0f4"
     id="path_19" />
</svg>
