<svg id="vector" width="71" height="87" version="1.1" viewBox="0 0 71 87" xmlns="http://www.w3.org/2000/svg"><g fill="#f2f0f4"><path id="path_0" d="m10.947 82.381-5.2559-1.7734-5.252-1.7734c-0.050273 0.14892-0.10449 0.29619-0.1543 0.44531-0.971 2.898 0.61277 6.0466 3.5098 7.0176 2.898 0.971 6.0446-0.59677 7.0156-3.5098v-0.01367c0.04394-0.1315 0.09238-0.26125 0.13672-0.39258z"/><path id="path_1" d="m12.678 77.557-5.1973-1.9785-5.166-1.9648c-0.7125 1.8721-1.3925 3.7593-2.0293 5.666-0.066096 0.19727-0.11733 0.39689-0.16016 0.5957l10.52 3.3379c0.05926-0.13902 0.11737-0.27985 0.16602-0.42578v-0.01367c0.5864-1.7548 1.2113-3.4936 1.8672-5.2168z"/><path id="path_2" d="m14.631 72.725-5.1543-2.1953-5.0508-2.1484c-0.85909 2.0184-1.6719 4.0589-2.4414 6.1211l5.1777 1.9316 5.2109 1.9434c0.71071-1.9043 1.4643-3.7883 2.2578-5.6523z"/><path id="path_3" d="m16.781 67.934-5.1113-2.4141-4.916-2.3242c-0.94091 1.9911-1.8375 4.0072-2.6895 6.0449l10.23 4.2773c0.78737-1.8829 1.6166-3.7441 2.4863-5.584z"/><path id="path_4" d="m19.107 63.246-5.0625-2.6387-4.7734-2.4863c-1.0169 1.9515-1.9923 3.9272-2.9219 5.9277l4.9414 2.2969 5.1152 2.377c0.85905-1.8484 1.7613-3.6733 2.7012-5.4766z"/><path id="path_5" d="m21.646 58.586-4.998-2.8613-4.627-2.6484c-1.1084 1.9365-2.1693 3.9012-3.1895 5.8906l4.7988 2.4609 5.0703 2.6016c0.94249-1.8376 1.9213-3.6546 2.9453-5.4434z"/><path id="path_6" d="m24.342 54.098-9.4062-5.8789c-1.1632 1.8603-2.2838 3.7482-3.3633 5.6621l4.6465 2.6191 5.0137 2.8281c0.99758-1.7684 2.0344-3.5116 3.1094-5.2305z"/><path id="path_7" d="m27.211 49.705-4.8418-3.2969-4.3262-2.9453c-1.2375 1.8175-2.4347 3.6634-3.5898 5.5371l4.4941 2.7715 4.9473 3.0488c1.0674-1.731 2.1729-3.4361 3.3164-5.1152z"/><path id="path_8" d="m30.246 45.43-4.7285-3.498-4.1895-3.0977c-1.31 1.7714-2.5815 3.5721-3.8105 5.4023l4.3516 2.9219 4.8574 3.2617c1.1355-1.6906 2.3093-3.354 3.5195-4.9902z"/><path id="path_9" d="m33.449 41.268-4.5938-3.6836-4.0625-3.2559c-1.3811 1.7226-2.7238 3.4758-4.0254 5.2598l4.2148 3.0762 4.7461 3.4609c1.2026-1.648 2.4447-3.2661 3.7207-4.8574z"/><path id="path_10" d="m36.799 37.25-4.4375-3.8516-3.9434-3.4199c-1.4409 1.6606-2.8411 3.3544-4.2051 5.0781l4.084 3.2305 4.6172 3.6523c1.2597-1.5917 2.5541-3.1561 3.8848-4.6895z"/><path id="path_11" d="m40.295 33.381-4.2676-4.0059-3.8223-3.584c-1.5034 1.6026-2.97 3.2383-4.3984 4.9062l3.959 3.3887 4.4688 3.8281c1.3193-1.5403 2.672-3.0532 4.0605-4.5332z"/><path id="path_12" d="m43.955 29.629-4.0801-4.1387-3.707-3.7598c-1.5707 1.5489-3.1063 3.1312-4.6035 4.748l3.8418 3.5566 4.2969 3.9805c1.3831-1.4935 2.801-2.9561 4.252-4.3867z"/><path id="path_13" d="m47.762 26.018-3.8809-4.2559-3.5938-3.9414c-1.6281 1.4848-3.2205 3.0038-4.7773 4.5586l3.7285 3.7324 4.1094 4.1172c1.4383-1.4363 2.9099-2.8394 4.4141-4.2109z"/><path id="path_14" d="m51.658 22.594-3.6738-4.3555-3.4805-4.123c-1.6709 1.4098-3.3113 2.8552-4.9141 4.3359l3.6191 3.916 3.9102 4.2344c1.4813-1.3683 2.9948-2.7051 4.5391-4.0078z"/><path id="path_15" d="m55.723 19.303-6.8184-8.752c-1.7451 1.3599-3.4554 2.757-5.1328 4.1914l3.498 4.0898 3.7129 4.3418c1.5492-1.3245 3.1286-2.6155 4.7402-3.8711z"/><path id="path_16" d="m59.934 16.156-3.2656-4.5488-3.207-4.4629c-1.7955 1.2898-3.559 2.6183-5.2891 3.9844l6.877 8.707c1.5981-1.2615 3.2263-2.4888 4.8848-3.6797z"/><path id="path_17" d="m64.283 13.162-3.0684-4.6465-3.0488-4.6133c-1.8499 1.2219-3.6688 2.4827-5.4551 3.7832l6.5312 8.9688c1.6503-1.2009 3.332-2.364 5.041-3.4922z"/><path id="path_18" d="m68.691 10.336-5.6094-9.5117c-0.18364 0.08613-0.36584 0.18086-0.54297 0.28906-1.7435 1.0646-3.4591 2.1662-5.1504 3.2988l3.0781 4.5957 3.0977 4.627c1.5618-1.0454 3.146-2.0626 4.7559-3.0449 0.12944-0.07905 0.25048-0.16626 0.37109-0.25391z"/><path id="path_19" d="m65.682 0.30664c-1.0676-0.049893-2.1616 0.20739-3.1426 0.80664-0.13644 0.08331-0.27012 0.17017-0.40625 0.25391l5.8164 9.4551c0.12444-0.07649 0.24637-0.15632 0.37109-0.23242 2.615-1.597 3.4447-5.012 1.8477-7.627-0.99875-1.6344-2.707-2.5731-4.4863-2.6562z"/></g></svg>
