<svg id="vector" width="98" height="44" version="1.1" viewBox="0 0 98 44" xmlns="http://www.w3.org/2000/svg"><g fill="#ffffff"><path id="path_0" d="m92.156 33.299c1.4921 1.644 3.0223 3.4394 4.4142 5.1941 1.041 1.306 0.819 3.21-0.486 4.251-1.304 1.042-3.206 0.82-4.246-0.486-1.3078-1.6492-2.7504-3.3421-4.1524-4.8872z"/><path id="path_1" d="m87.858 37.562c-1.402-1.5451-3.1343-3.3104-4.6245-4.7491l4.1958-4.3542c1.5858 1.5307 3.4075 3.3883 4.8997 5.0323z"/><path id="path_2" d="m83.416 32.988c-1.4901-1.4387-3.2162-3-4.7884-4.3297l3.9939-4.5411c1.673 1.4149 3.4002 2.9817 4.986 4.5124z"/><path id="path_3" d="m78.932 28.917c-1.5722-1.3298-3.3757-2.7571-5.0237-3.9755l3.5875-4.8683c1.7537 1.2964 3.6603 2.8051 5.3333 4.22z"/><path id="path_4" d="m74.101 25.085c-1.648-1.2184-3.5247-2.5138-5.2424-3.6185l3.2612-5.093c1.8279 1.1754 3.8142 2.5461 5.5679 3.8425z"/><path id="path_5" d="m69.052 21.591c-1.7178-1.1047-3.6631-2.2683-5.4445-3.2569l2.9277-5.2922c1.8955 1.0518 3.9503 2.2807 5.7782 3.4561z"/><path id="path_6" d="m63.801 18.442c-1.7814-0.98854-3.7864-2.0186-5.6252-2.8886l2.5787-5.471c1.9567 0.9256 4.0787 2.0157 5.9742 3.0675z"/><path id="path_7" d="m58.37 15.645c-1.8389-0.86996-3.8975-1.7642-5.7877-2.5132l2.2148-5.6284c2.0113 0.79684 4.1943 1.7446 6.1509 2.6702z"/><path id="path_8" d="m52.775 13.209c-1.8902-0.74895-3.9985-1.5066-5.934-2.1321l1.8519-5.7584c2.0595 0.66551 4.2922 1.4677 6.3035 2.2646z"/><path id="path_9" d="m47.034 11.139c-1.9355-0.62553-4.0876-1.2451-6.0622-1.7448l1.4778-5.8658c2.1011 0.5316 4.3762 1.1865 6.4357 1.852z"/><path id="path_10" d="m41.168 9.4445c-1.9746-0.49968-4.1599-0.97832-6.1675-1.3497l1.0897-5.9503c2.1362 0.39511 4.4534 0.90227 6.5545 1.4339z"/><path id="path_11" d="m35.192 8.1304c-2.0075-0.37141-4.2236-0.70763-6.258-0.94835l0.7031-6.0083c2.1648 0.25604 4.5153 0.61257 6.6515 1.0077z"/><path id="path_12" d="m29.423 7.2411c-2.0344-0.24072-4.42-0.45004-6.4751-0.55765l0.3113-6.0413c2.187 0.1144 4.5555 0.31682 6.7203 0.57286z"/><path id="path_13" d="m23.088 6.6811c-2.0551-0.10761-4.4112-0.15728-6.4808-0.12936l-0.08349-6.0487c2.2026-0.029826 4.6887 0.022256 6.8756 0.13665z"/><path id="path_14" d="m16.9 6.5483c-2.0697 0.027921-4.4365 0.13419-6.5146 0.30007l-0.48307-6.0299c2.2117-0.17662 4.7168-0.28909 6.9194-0.31891z"/><path id="path_15" d="m10.679 6.8253c-2.0781 0.16587-4.1589 0.40133-6.2394 0.70758-1.066 0.154-2.14-0.264-2.806-1.118-0.665-0.854-0.835-1.989-0.443-2.996 0.401-1.008 1.305-1.725 2.37-1.878l-8e-3 8e-3c2.2142-0.326 4.4288-0.57667 6.6405-0.75329z"/></g></svg>
