<svg id="vector" xmlns="http://www.w3.org/2000/svg" width="47" height="49" viewBox="0 0 47 49"><path fill="#ffffff" d="M7.009,47.567V22.751C7.009,13.753 14.156,6.369 23.166,6.061C32.176,5.754 39.801,12.643 40.417,21.624C40.459,22.256 40.989,22.751 41.622,22.751H45.264C45.597,22.751 45.913,22.614 46.144,22.375C46.375,22.136 46.494,21.812 46.477,21.479C45.776,9.177 35.416,-0.333 23.089,0.009C10.762,0.359 0.948,10.432 0.948,22.751V47.567C0.948,48.233 1.487,48.779 2.162,48.779H5.795C6.462,48.779 7.009,48.241 7.009,47.567Z" id="path_0"/></svg>