<svg id="vector" xmlns="http://www.w3.org/2000/svg" width="38" height="43" viewBox="0 0 38 43"><path fill="#ffffff" d="M31.451,1.769C31.451,1.103 31.989,0.557 32.665,0.557H36.298C36.965,0.557 37.512,1.095 37.512,1.769V19.372C37.512,27.926 32.707,35.763 25.074,39.638C17.44,43.522 8.267,42.797 1.343,37.76C1.069,37.564 0.899,37.265 0.856,36.941C0.813,36.616 0.907,36.275 1.121,36.019L3.429,33.202C3.831,32.706 4.549,32.612 5.07,32.98C10.174,36.599 16.867,37.069 22.424,34.2C27.98,31.332 31.468,25.612 31.468,19.364V1.761L31.451,1.769Z" id="path_0"/></svg>