<svg id="vector" xmlns="http://www.w3.org/2000/svg" width="45" height="81" viewBox="0 0 45 81"><path fill="#f0f2f2" d="M0.354,58.077V22.177C0.354,10.184 9.891,0.363 21.883,0.01C33.876,-0.343 43.964,8.909 44.671,20.885C44.688,21.221 44.567,21.548 44.343,21.798C44.111,22.039 43.792,22.177 43.456,22.177H39.786C39.148,22.177 38.614,21.677 38.571,21.04C37.985,12.691 31.033,6.109 22.538,6.109C13.664,6.109 6.47,13.303 6.47,22.177V58.077C6.47,66.951 13.664,74.145 22.538,74.145C31.412,74.145 38.605,66.951 38.605,58.077V47.696C38.605,47.024 39.148,46.472 39.829,46.472H43.49C44.162,46.472 44.714,47.015 44.714,47.696V58.077C44.714,66.003 40.484,73.318 33.626,77.281C26.768,81.244 18.308,81.244 11.45,77.281C4.584,73.318 0.354,65.994 0.354,58.077Z" id="path_0"/></svg>