<svg id="vector" width="248" height="248" version="1.1" viewBox="0 0 248 248" xmlns="http://www.w3.org/2000/svg"><g fill="none" stroke="#1b1d1f"><path id="path_0" d="m207 64m-6.3 0a6.3 6.3 0 1 1 12.61 0 6.3 6.3 0 1 1-12.61 0" stroke-width="1.3931"/><g stroke-width="1.5449"><path id="path_1" d="m86 124m-30.23 0a30.23 30.23 0 1 1 60.46 0 30.23 30.23 0 1 1-60.46 0"/><path id="path_2" d="m162 124m-30.23 0a30.23 30.23 0 1 1 60.46 0 30.23 30.23 0 1 1-60.46 0"/><path id="path_3" d="m86 82.77h76a41.23 41.23 0 0 1 41.23 41.23 41.23 41.23 0 0 1-41.23 41.23h-76a41.23 41.23 0 0 1-41.23-41.23 41.23 41.23 0 0 1 41.23-41.23z"/></g><path id="path_4" d="m124 0.7a123.3 123.3 0 0 1 123.3 123.3 123.3 123.3 0 0 1-123.3 123.3 123.3 123.3 0 0 1-123.3-123.3 123.3 123.3 0 0 1 123.3-123.3z" stroke-width="1.3931"/></g></svg>
