<svg id="vector" width="80" height="93" version="1.1" viewBox="0 0 80 93" xmlns="http://www.w3.org/2000/svg"><g fill="#ffffff" stroke-opacity=".3"><path id="path_23" d="m72.367 0.80469 4.5918 9.8418c2.336-1.3011 3.433-4.1362 2.4453-6.7031-1.0805-2.8081-4.2281-4.2112-7.0371-3.1387z"/><path id="path_22" d="m72.715 0.71094c-0.11946 0.036793-0.24096 0.052133-0.35938 0.097656-1.3922 0.53553-2.8325 1.1808-4.3027 1.9004l4.752 9.8223c1.1994-0.58771 2.363-1.1125 3.4668-1.5371 0.35803-0.13771 0.69182-0.30982 1.002-0.50977z"/><path id="path_21" d="m68.307 2.5879c-1.5469 0.74832-3.1355 1.6012-4.752 2.5391l5.4473 9.4512c1.3969-0.81129 2.754-1.5395 4.0547-2.168z"/><path id="path_20" d="m63.791 4.9863c-1.4778 0.85094-2.982 1.7854-4.5039 2.7832l5.9668 9.1406c1.3594-0.89182 2.6948-1.7292 3.9863-2.4727z"/><path id="path_19" d="m59.52 7.6133c-1.4193 0.92504-2.8584 1.9294-4.3047 2.9727l6.3711 8.8633c1.3204-0.95263 2.6255-1.8656 3.8984-2.6953z"/><path id="path_18" d="m55.436 10.422c-1.3795 0.99034-2.7699 2.0495-4.1641 3.1387l6.707 8.6113c1.2901-1.0077 2.5705-1.9841 3.8281-2.8867z"/><path id="path_17" d="m51.502 13.379c-1.3399 1.0422-2.6845 2.1401-4.0293 3.2656l6.998 8.373c1.2544-1.0494 2.5042-2.07 3.7383-3.0293z"/><path id="path_16" d="m47.695 16.459c-1.309 1.0913-2.6181 2.2256-3.9238 3.3887l7.2559 8.1484c1.2262-1.0918 2.4505-2.1514 3.666-3.1641z"/><path id="path_15" d="m43.996 19.648c-1.281 1.1368-2.5557 2.312-3.8262 3.5117l7.4922 7.9336c1.1978-1.1307 2.3947-2.2351 3.5898-3.2949z"/><path id="path_14" d="m40.4 22.938c-1.2596 1.185-2.5095 2.4086-3.752 3.6504l7.7148 7.7168c1.1748-1.174 2.3522-2.327 3.5312-3.4355z"/><path id="path_13" d="m36.908 26.328c-1.2214 1.2157-2.4303 2.4605-3.6289 3.7246l7.9219 7.502c1.1346-1.1963 2.2751-2.3689 3.4199-3.5078z"/><path id="path_12" d="m33.508 29.807c-1.1032 1.1589-2.1966 2.3368-3.2734 3.5371-0.08341 0.09298-0.16475 0.18996-0.24805 0.2832l8.123 7.2852c0.08289-0.0928 0.16302-0.18866 0.24609-0.28125 1.017-1.1336 2.0429-2.2394 3.0742-3.3223z"/><path id="path_11" d="m30.205 33.377c-1.2767 1.4238-2.534 2.8895-3.7793 4.373l8.3457 7.0273c1.1672-1.3908 2.3494-2.7688 3.5586-4.1172z"/><path id="path_10" d="m26.617 37.521c-1.2339 1.465-2.4432 2.9655-3.6367 4.4824l8.5605 6.7578c1.1169-1.4199 2.254-2.8268 3.4199-4.2109z"/><path id="path_9" d="m23.156 41.779c-1.1969 1.5159-2.3668 3.0597-3.5137 4.6211l8.7812 6.4707c1.0708-1.4585 2.1669-2.9053 3.2949-4.334z"/><path id="path_8" d="m19.828 46.15c-1.1503 1.5598-2.2727 3.1413-3.3633 4.7402l9.002 6.1602c1.0142-1.4878 2.063-2.9656 3.1426-4.4297z"/><path id="path_7" d="m16.643 50.635c-1.1037 1.6112-2.1701 3.2422-3.2031 4.8867l9.2285 5.8164c0.95572-1.5223 1.946-3.0383 2.9766-4.543z"/><path id="path_6" d="m13.613 55.244c-1.0483 1.6603-2.0536 3.3376-3.0195 5.0254l9.457 5.4316c0.88752-1.5518 1.8165-3.1002 2.7891-4.6406z"/><path id="path_5" d="m10.758 59.986c-0.98772 1.7157-1.9284 3.4445-2.8203 5.1816l9.6934 4.998c0.81252-1.5843 1.6727-3.1683 2.582-4.748z"/><path id="path_4" d="m8.0918 64.865c-0.90658 1.7531-1.7611 3.5153-2.5586 5.2832l9.9375 4.498c0.71738-1.5922 1.49-3.1883 2.3145-4.7832z"/><path id="path_3" d="m5.6484 69.895c-0.8246 1.815-1.5841 3.636-2.2812 5.459l10.182 3.916c0.61851-1.6198 1.2965-3.2464 2.0371-4.877z"/><path id="path_2" d="m3.4727 75.088c-0.7259 1.8804-1.3805 3.7622-1.959 5.6426l10.42 3.2266c0.50325-1.6413 1.0777-3.2943 1.7188-4.9551z"/><path id="path_1" d="m1.5996 80.449c-0.56074 1.7984-1.0513 3.5955-1.4609 5.3867-0.019023 0.08327-0.033802 0.16681-0.048828 0.25l10.498 2.8145c0.07354-0.20485 0.13775-0.4153 0.1875-0.63281 0.34691-1.5174 0.76196-3.0496 1.2422-4.5918z"/><path id="path_0" d="m10.686 88.602-10.533-2.8203c-0.004194 0.01827-0.009495 0.03642-0.013672 0.05469-0.67098 2.937 1.1646 5.8612 4.1016 6.5332 2.8245 0.64507 5.6352-1.027 6.4453-3.7676z"/></g></svg>
