<?xml version="1.0" encoding="UTF-8"?>
<svg id="svg1" width="150" height="150" version="1.1" viewBox="0 0 150 150" xml:space="preserve" xmlns="http://www.w3.org/2000/svg"><g id="layer1" fill="#fff"><rect id="path_9" x="57.59" y="11.6" width="4.25" height="4.25" ry=".37795"/><rect id="path_10" x="62.7" y="11.6" width="4.25" height="4.25" ry=".37795"/><rect id="path_11" x="67.81" y="11.6" width="4.25" height="4.25" ry=".37795"/><rect id="path_12" x="72.92" y="11.6" width="4.25" height="4.25" ry=".37795"/><rect id="path_13" x="78.03" y="11.6" width="4.25" height="4.25" ry=".37795"/><rect id="path_14" x="83.14" y="11.6" width="4.25" height="4.25" ry=".37795"/><rect id="path_15" x="88.25" y="11.6" width="4.25" height="4.25" ry=".37795"/><rect id="path_34" x="57.59" y="16.71" width="4.25" height="4.25" ry=".37795"/><rect id="path_35" x="62.7" y="16.71" width="4.25" height="4.25" ry=".37795"/><rect id="path_36" x="67.81" y="16.71" width="4.25" height="4.25" ry=".37795"/><rect id="path_37" x="72.92" y="16.71" width="4.25" height="4.25" ry=".37795"/><rect id="path_38" x="78.03" y="16.71" width="4.25" height="4.25" ry=".37795"/><rect id="path_39" x="83.14" y="16.71" width="4.25" height="4.25" ry=".37795"/><rect id="path_40" x="88.25" y="16.71" width="4.25" height="4.25" ry=".37795"/><rect id="path_32" x="47.37" y="16.71" width="4.25" height="4.25" ry=".37795"/><rect id="path_33" x="52.48" y="16.71" width="4.25" height="4.25" ry=".37795"/><rect id="path_41" x="93.36" y="16.71" width="4.25" height="4.25" ry=".37795"/><rect id="path_42" x="98.47" y="16.71" width="4.25" height="4.25" ry=".37795"/><rect id="path_584" x="57.59" y="129.13" width="4.25" height="4.25" ry=".37795"/><rect id="path_585" x="62.7" y="129.13" width="4.25" height="4.25" ry=".37795"/><rect id="path_586" x="67.81" y="129.13" width="4.25" height="4.25" ry=".37795"/><rect id="path_587" x="72.92" y="129.13" width="4.25" height="4.25" ry=".37795"/><rect id="path_588" x="78.03" y="129.13" width="4.25" height="4.25" ry=".37795"/><rect id="path_589" x="83.14" y="129.13" width="4.25" height="4.25" ry=".37795"/><rect id="path_590" x="88.25" y="129.13" width="4.25" height="4.25" ry=".37795"/><rect id="path_582" x="47.37" y="129.13" width="4.25" height="4.25" ry=".37795"/><rect id="path_583" x="52.48" y="129.13" width="4.25" height="4.25" ry=".37795"/><rect id="path_591" x="93.36" y="129.13" width="4.25" height="4.25" ry=".37795"/><rect id="path_592" x="98.47" y="129.13" width="4.25" height="4.25" ry=".37795"/><rect id="path_59" x="57.59" y="21.82" width="4.25" height="4.25" ry=".37795"/><rect id="path_60" x="62.7" y="21.82" width="4.25" height="4.25" ry=".37795"/><rect id="path_61" x="67.81" y="21.82" width="4.25" height="4.25" ry=".37795"/><rect id="path_62" x="72.92" y="21.82" width="4.25" height="4.25" ry=".37795"/><rect id="path_63" x="78.03" y="21.82" width="4.25" height="4.25" ry=".37795"/><rect id="path_64" x="83.14" y="21.82" width="4.25" height="4.25" ry=".37795"/><rect id="path_65" x="88.25" y="21.82" width="4.25" height="4.25" ry=".37795"/><rect id="path_57" x="47.37" y="21.82" width="4.25" height="4.25" ry=".37795"/><rect id="path_58" x="52.48" y="21.82" width="4.25" height="4.25" ry=".37795"/><rect id="path_66" x="93.36" y="21.82" width="4.25" height="4.25" ry=".37795"/><rect id="path_67" x="98.47" y="21.82" width="4.25" height="4.25" ry=".37795"/><rect id="path_55" x="37.15" y="21.82" width="4.25" height="4.25" ry=".37795"/><rect id="path_56" x="42.26" y="21.82" width="4.25" height="4.25" ry=".37795"/><rect id="path_68" x="103.58" y="21.82" width="4.25" height="4.25" ry=".37795"/><rect id="path_69" x="108.69" y="21.82" width="4.25" height="4.25" ry=".37795"/><rect id="path_559" x="57.59" y="124.02" width="4.25" height="4.25" ry=".37795"/><rect id="path_560" x="62.7" y="124.02" width="4.25" height="4.25" ry=".37795"/><rect id="path_561" x="67.81" y="124.02" width="4.25" height="4.25" ry=".37795"/><rect id="path_562" x="72.92" y="124.02" width="4.25" height="4.25" ry=".37795"/><rect id="path_563" x="78.03" y="124.02" width="4.25" height="4.25" ry=".37795"/><rect id="path_564" x="83.14" y="124.02" width="4.25" height="4.25" ry=".37795"/><rect id="path_565" x="88.25" y="124.02" width="4.25" height="4.25" ry=".37795"/><rect id="path_557" x="47.37" y="124.02" width="4.25" height="4.25" ry=".37795"/><rect id="path_558" x="52.48" y="124.02" width="4.25" height="4.25" ry=".37795"/><rect id="path_566" x="93.36" y="124.02" width="4.25" height="4.25" ry=".37795"/><rect id="path_567" x="98.47" y="124.02" width="4.25" height="4.25" ry=".37795"/><rect id="path_555" x="37.15" y="124.02" width="4.25" height="4.25" ry=".37795"/><rect id="path_556" x="42.26" y="124.02" width="4.25" height="4.25" ry=".37795"/><rect id="path_568" x="103.58" y="124.02" width="4.25" height="4.25" ry=".37795"/><rect id="path_569" x="108.69" y="124.02" width="4.25" height="4.25" ry=".37795"/><rect id="path_84" x="57.59" y="26.93" width="4.25" height="4.25" ry=".37795"/><rect id="path_85" x="62.7" y="26.93" width="4.25" height="4.25" ry=".37795"/><rect id="path_86" x="67.81" y="26.93" width="4.25" height="4.25" ry=".37795"/><rect id="path_87" x="72.92" y="26.93" width="4.25" height="4.25" ry=".37795"/><rect id="path_88" x="78.03" y="26.93" width="4.25" height="4.25" ry=".37795"/><rect id="path_89" x="83.14" y="26.93" width="4.25" height="4.25" ry=".37795"/><rect id="path_90" x="88.25" y="26.93" width="4.25" height="4.25" ry=".37795"/><rect id="path_82" x="47.37" y="26.93" width="4.25" height="4.25" ry=".37795"/><rect id="path_83" x="52.48" y="26.93" width="4.25" height="4.25" ry=".37795"/><rect id="path_91" x="93.36" y="26.93" width="4.25" height="4.25" ry=".37795"/><rect id="path_92" x="98.47" y="26.93" width="4.25" height="4.25" ry=".37795"/><rect id="path_80" x="37.15" y="26.93" width="4.25" height="4.25" ry=".37795"/><rect id="path_81" x="42.26" y="26.93" width="4.25" height="4.25" ry=".37795"/><rect id="path_93" x="103.58" y="26.93" width="4.25" height="4.25" ry=".37795"/><rect id="path_94" x="108.69" y="26.93" width="4.25" height="4.25" ry=".37795"/><rect id="path_79" x="32.04" y="26.93" width="4.25" height="4.25" ry=".37795"/><rect id="path_95" x="113.8" y="26.93" width="4.25" height="4.25" ry=".37795"/><rect id="path_109" x="57.59" y="32.04" width="4.25" height="4.25" ry=".37795"/><rect id="path_110" x="62.7" y="32.04" width="4.25" height="4.25" ry=".37795"/><rect id="path_111" x="67.81" y="32.04" width="4.25" height="4.25" ry=".37795"/><rect id="path_112" x="72.92" y="32.04" width="4.25" height="4.25" ry=".37795"/><rect id="path_113" x="78.03" y="32.04" width="4.25" height="4.25" ry=".37795"/><rect id="path_114" x="83.14" y="32.04" width="4.25" height="4.25" ry=".37795"/><rect id="path_115" x="88.25" y="32.04" width="4.25" height="4.25" ry=".37795"/><rect id="path_107" x="47.37" y="32.04" width="4.25" height="4.25" ry=".37795"/><rect id="path_108" x="52.48" y="32.04" width="4.25" height="4.25" ry=".37795"/><rect id="path_116" x="93.36" y="32.04" width="4.25" height="4.25" ry=".37795"/><rect id="path_117" x="98.47" y="32.04" width="4.25" height="4.25" ry=".37795"/><rect id="path_105" x="37.15" y="32.04" width="4.25" height="4.25" ry=".37795"/><rect id="path_106" x="42.26" y="32.04" width="4.25" height="4.25" ry=".37795"/><rect id="path_118" x="103.58" y="32.04" width="4.25" height="4.25" ry=".37795"/><rect id="path_119" x="108.69" y="32.04" width="4.25" height="4.25" ry=".37795"/><rect id="path_104" x="32.04" y="32.04" width="4.25" height="4.25" ry=".37795"/><rect id="path_120" x="113.8" y="32.04" width="4.25" height="4.25" ry=".37795"/><rect id="path_103" x="26.93" y="32.04" width="4.25" height="4.25" ry=".37795"/><rect id="path_121" x="118.91" y="32.04" width="4.25" height="4.25" ry=".37795"/><rect id="path_509" x="57.59" y="113.8" width="4.25" height="4.25" ry=".37795"/><rect id="path_510" x="62.7" y="113.8" width="4.25" height="4.25" ry=".37795"/><rect id="path_511" x="67.81" y="113.8" width="4.25" height="4.25" ry=".37795"/><rect id="path_512" x="72.92" y="113.8" width="4.25" height="4.25" ry=".37795"/><rect id="path_513" x="78.03" y="113.8" width="4.25" height="4.25" ry=".37795"/><rect id="path_514" x="83.14" y="113.8" width="4.25" height="4.25" ry=".37795"/><rect id="path_515" x="88.25" y="113.8" width="4.25" height="4.25" ry=".37795"/><rect id="path_507" x="47.37" y="113.8" width="4.25" height="4.25" ry=".37795"/><rect id="path_508" x="52.48" y="113.8" width="4.25" height="4.25" ry=".37795"/><rect id="path_516" x="93.36" y="113.8" width="4.25" height="4.25" ry=".37795"/><rect id="path_517" x="98.47" y="113.8" width="4.25" height="4.25" ry=".37795"/><rect id="path_505" x="37.15" y="113.8" width="4.25" height="4.25" ry=".37795"/><rect id="path_506" x="42.26" y="113.8" width="4.25" height="4.25" ry=".37795"/><rect id="path_518" x="103.58" y="113.8" width="4.25" height="4.25" ry=".37795"/><rect id="path_519" x="108.69" y="113.8" width="4.25" height="4.25" ry=".37795"/><rect id="path_504" x="32.04" y="113.8" width="4.25" height="4.25" ry=".37795"/><rect id="path_520" x="113.8" y="113.8" width="4.25" height="4.25" ry=".37795"/><rect id="path_503" x="26.93" y="113.8" width="4.25" height="4.25" ry=".37795"/><rect id="path_521" x="118.91" y="113.8" width="4.25" height="4.25" ry=".37795"/><rect id="path_134" x="57.59" y="37.15" width="4.25" height="4.25" ry=".37795"/><rect id="path_135" x="62.7" y="37.15" width="4.25" height="4.25" ry=".37795"/><rect id="path_136" x="67.81" y="37.15" width="4.25" height="4.25" ry=".37795"/><rect id="path_137" x="72.92" y="37.15" width="4.25" height="4.25" ry=".37795"/><rect id="path_138" x="78.03" y="37.15" width="4.25" height="4.25" ry=".37795"/><rect id="path_139" x="83.14" y="37.15" width="4.25" height="4.25" ry=".37795"/><rect id="path_140" x="88.25" y="37.15" width="4.25" height="4.25" ry=".37795"/><rect id="path_132" x="47.37" y="37.15" width="4.25" height="4.25" ry=".37795"/><rect id="path_133" x="52.48" y="37.15" width="4.25" height="4.25" ry=".37795"/><rect id="path_141" x="93.36" y="37.15" width="4.25" height="4.25" ry=".37795"/><rect id="path_142" x="98.47" y="37.15" width="4.25" height="4.25" ry=".37795"/><rect id="path_130" x="37.15" y="37.15" width="4.25" height="4.25" ry=".37795"/><rect id="path_131" x="42.26" y="37.15" width="4.25" height="4.25" ry=".37795"/><rect id="path_143" x="103.58" y="37.15" width="4.25" height="4.25" ry=".37795"/><rect id="path_144" x="108.69" y="37.15" width="4.25" height="4.25" ry=".37795"/><rect id="path_129" x="32.04" y="37.15" width="4.25" height="4.25" ry=".37795"/><rect id="path_145" x="113.8" y="37.15" width="4.25" height="4.25" ry=".37795"/><rect id="path_128" x="26.93" y="37.15" width="4.25" height="4.25" ry=".37795"/><rect id="path_146" x="118.91" y="37.15" width="4.25" height="4.25" ry=".37795"/><rect id="path_127" x="21.82" y="37.15" width="4.25" height="4.25" ry=".37795"/><rect id="path_147" x="124.02" y="37.15" width="4.25" height="4.25" ry=".37795"/><rect id="path_459" x="57.59" y="103.58" width="4.25" height="4.25" ry=".37795"/><rect id="path_460" x="62.7" y="103.58" width="4.25" height="4.25" ry=".37795"/><rect id="path_461" x="67.81" y="103.58" width="4.25" height="4.25" ry=".37795"/><rect id="path_462" x="72.92" y="103.58" width="4.25" height="4.25" ry=".37795"/><rect id="path_463" x="78.03" y="103.58" width="4.25" height="4.25" ry=".37795"/><rect id="path_464" x="83.14" y="103.58" width="4.25" height="4.25" ry=".37795"/><rect id="path_465" x="88.25" y="103.58" width="4.25" height="4.25" ry=".37795"/><rect id="path_457" x="47.37" y="103.58" width="4.25" height="4.25" ry=".37795"/><rect id="path_458" x="52.48" y="103.58" width="4.25" height="4.25" ry=".37795"/><rect id="path_466" x="93.36" y="103.58" width="4.25" height="4.25" ry=".37795"/><rect id="path_467" x="98.47" y="103.58" width="4.25" height="4.25" ry=".37795"/><rect id="path_455" x="37.15" y="103.58" width="4.25" height="4.25" ry=".37795"/><rect id="path_456" x="42.26" y="103.58" width="4.25" height="4.25" ry=".37795"/><rect id="path_468" x="103.58" y="103.58" width="4.25" height="4.25" ry=".37795"/><rect id="path_469" x="108.69" y="103.58" width="4.25" height="4.25" ry=".37795"/><rect id="path_454" x="32.04" y="103.58" width="4.25" height="4.25" ry=".37795"/><rect id="path_470" x="113.8" y="103.58" width="4.25" height="4.25" ry=".37795"/><rect id="path_453" x="26.93" y="103.58" width="4.25" height="4.25" ry=".37795"/><rect id="path_471" x="118.91" y="103.58" width="4.25" height="4.25" ry=".37795"/><rect id="path_452" x="21.82" y="103.58" width="4.25" height="4.25" ry=".37795"/><rect id="path_472" x="124.02" y="103.58" width="4.25" height="4.25" ry=".37795"/><rect id="path_484" x="57.59" y="108.69" width="4.25" height="4.25" ry=".37795"/><rect id="path_485" x="62.7" y="108.69" width="4.25" height="4.25" ry=".37795"/><rect id="path_486" x="67.81" y="108.69" width="4.25" height="4.25" ry=".37795"/><rect id="path_487" x="72.92" y="108.69" width="4.25" height="4.25" ry=".37795"/><rect id="path_488" x="78.03" y="108.69" width="4.25" height="4.25" ry=".37795"/><rect id="path_489" x="83.14" y="108.69" width="4.25" height="4.25" ry=".37795"/><rect id="path_490" x="88.25" y="108.69" width="4.25" height="4.25" ry=".37795"/><rect id="path_482" x="47.37" y="108.69" width="4.25" height="4.25" ry=".37795"/><rect id="path_483" x="52.48" y="108.69" width="4.25" height="4.25" ry=".37795"/><rect id="path_491" x="93.36" y="108.69" width="4.25" height="4.25" ry=".37795"/><rect id="path_492" x="98.47" y="108.69" width="4.25" height="4.25" ry=".37795"/><rect id="path_480" x="37.15" y="108.69" width="4.25" height="4.25" ry=".37795"/><rect id="path_481" x="42.26" y="108.69" width="4.25" height="4.25" ry=".37795"/><rect id="path_493" x="103.58" y="108.69" width="4.25" height="4.25" ry=".37795"/><rect id="path_494" x="108.69" y="108.69" width="4.25" height="4.25" ry=".37795"/><rect id="path_479" x="32.04" y="108.69" width="4.25" height="4.25" ry=".37795"/><rect id="path_495" x="113.8" y="108.69" width="4.25" height="4.25" ry=".37795"/><rect id="path_478" x="26.93" y="108.69" width="4.25" height="4.25" ry=".37795"/><rect id="path_496" x="118.91" y="108.69" width="4.25" height="4.25" ry=".37795"/><rect id="path_477" x="21.82" y="108.69" width="4.25" height="4.25" ry=".37795"/><rect id="path_497" x="124.02" y="108.69" width="4.25" height="4.25" ry=".37795"/><rect id="path_159" x="57.59" y="42.26" width="4.25" height="4.25" ry=".37795"/><rect id="path_160" x="62.7" y="42.26" width="4.25" height="4.25" ry=".37795"/><rect id="path_161" x="67.81" y="42.26" width="4.25" height="4.25" ry=".37795"/><rect id="path_162" x="72.92" y="42.26" width="4.25" height="4.25" ry=".37795"/><rect id="path_163" x="78.03" y="42.26" width="4.25" height="4.25" ry=".37795"/><rect id="path_164" x="83.14" y="42.26" width="4.25" height="4.25" ry=".37795"/><rect id="path_165" x="88.25" y="42.26" width="4.25" height="4.25" ry=".37795"/><rect id="path_157" x="47.37" y="42.26" width="4.25" height="4.25" ry=".37795"/><rect id="path_158" x="52.48" y="42.26" width="4.25" height="4.25" ry=".37795"/><rect id="path_166" x="93.36" y="42.26" width="4.25" height="4.25" ry=".37795"/><rect id="path_167" x="98.47" y="42.26" width="4.25" height="4.25" ry=".37795"/><rect id="path_155" x="37.15" y="42.26" width="4.25" height="4.25" ry=".37795"/><rect id="path_156" x="42.26" y="42.26" width="4.25" height="4.25" ry=".37795"/><rect id="path_168" x="103.58" y="42.26" width="4.25" height="4.25" ry=".37795"/><rect id="path_169" x="108.69" y="42.26" width="4.25" height="4.25" ry=".37795"/><rect id="path_154" x="32.04" y="42.26" width="4.25" height="4.25" ry=".37795"/><rect id="path_170" x="113.8" y="42.26" width="4.25" height="4.25" ry=".37795"/><rect id="path_153" x="26.93" y="42.26" width="4.25" height="4.25" ry=".37795"/><rect id="path_171" x="118.91" y="42.26" width="4.25" height="4.25" ry=".37795"/><rect id="path_152" x="21.82" y="42.26" width="4.25" height="4.25" ry=".37795"/><rect id="path_172" x="124.02" y="42.26" width="4.25" height="4.25" ry=".37795"/><rect id="path_184" x="57.59" y="47.37" width="4.25" height="4.25" ry=".37795"/><rect id="path_185" x="62.7" y="47.37" width="4.25" height="4.25" ry=".37795"/><rect id="path_186" x="67.81" y="47.37" width="4.25" height="4.25" ry=".37795"/><rect id="path_187" x="72.92" y="47.37" width="4.25" height="4.25" ry=".37795"/><rect id="path_188" x="78.03" y="47.37" width="4.25" height="4.25" ry=".37795"/><rect id="path_189" x="83.14" y="47.37" width="4.25" height="4.25" ry=".37795"/><rect id="path_190" x="88.25" y="47.37" width="4.25" height="4.25" ry=".37795"/><rect id="path_182" x="47.37" y="47.37" width="4.25" height="4.25" ry=".37795"/><rect id="path_183" x="52.48" y="47.37" width="4.25" height="4.25" ry=".37795"/><rect id="path_191" x="93.36" y="47.37" width="4.25" height="4.25" ry=".37795"/><rect id="path_192" x="98.47" y="47.37" width="4.25" height="4.25" ry=".37795"/><rect id="path_180" x="37.15" y="47.37" width="4.25" height="4.25" ry=".37795"/><rect id="path_181" x="42.26" y="47.37" width="4.25" height="4.25" ry=".37795"/><rect id="path_193" x="103.58" y="47.37" width="4.25" height="4.25" ry=".37795"/><rect id="path_194" x="108.69" y="47.37" width="4.25" height="4.25" ry=".37795"/><rect id="path_179" x="32.04" y="47.37" width="4.25" height="4.25" ry=".37795"/><rect id="path_195" x="113.8" y="47.37" width="4.25" height="4.25" ry=".37795"/><rect id="path_178" x="26.93" y="47.37" width="4.25" height="4.25" ry=".37795"/><rect id="path_196" x="118.91" y="47.37" width="4.25" height="4.25" ry=".37795"/><rect id="path_177" x="21.82" y="47.37" width="4.25" height="4.25" ry=".37795"/><rect id="path_197" x="124.02" y="47.37" width="4.25" height="4.25" ry=".37795"/><rect id="path_176" x="16.71" y="47.37" width="4.25" height="4.25" ry=".37795"/><rect id="path_198" x="129.13" y="47.37" width="4.25" height="4.25" ry=".37795"/><rect id="path_409" x="57.59" y="93.36" width="4.25" height="4.25" ry=".37795"/><rect id="path_410" x="62.7" y="93.36" width="4.25" height="4.25" ry=".37795"/><rect id="path_411" x="67.81" y="93.36" width="4.25" height="4.25" ry=".37795"/><rect id="path_412" x="72.92" y="93.36" width="4.25" height="4.25" ry=".37795"/><rect id="path_413" x="78.03" y="93.36" width="4.25" height="4.25" ry=".37795"/><rect id="path_414" x="83.14" y="93.36" width="4.25" height="4.25" ry=".37795"/><rect id="path_415" x="88.25" y="93.36" width="4.25" height="4.25" ry=".37795"/><rect id="path_407" x="47.37" y="93.36" width="4.25" height="4.25" ry=".37795"/><rect id="path_408" x="52.48" y="93.36" width="4.25" height="4.25" ry=".37795"/><rect id="path_416" x="93.36" y="93.36" width="4.25" height="4.25" ry=".37795"/><rect id="path_417" x="98.47" y="93.36" width="4.25" height="4.25" ry=".37795"/><rect id="path_405" x="37.15" y="93.36" width="4.25" height="4.25" ry=".37795"/><rect id="path_406" x="42.26" y="93.36" width="4.25" height="4.25" ry=".37795"/><rect id="path_418" x="103.58" y="93.36" width="4.25" height="4.25" ry=".37795"/><rect id="path_419" x="108.69" y="93.36" width="4.25" height="4.25" ry=".37795"/><rect id="path_404" x="32.04" y="93.36" width="4.25" height="4.25" ry=".37795"/><rect id="path_420" x="113.8" y="93.36" width="4.25" height="4.25" ry=".37795"/><rect id="path_403" x="26.93" y="93.36" width="4.25" height="4.25" ry=".37795"/><rect id="path_421" x="118.91" y="93.36" width="4.25" height="4.25" ry=".37795"/><rect id="path_402" x="21.82" y="93.36" width="4.25" height="4.25" ry=".37795"/><rect id="path_422" x="124.02" y="93.36" width="4.25" height="4.25" ry=".37795"/><rect id="path_401" x="16.71" y="93.36" width="4.25" height="4.25" ry=".37795"/><rect id="path_423" x="129.13" y="93.36" width="4.25" height="4.25" ry=".37795"/><rect id="path_434" x="57.59" y="98.47" width="4.25" height="4.25" ry=".37795"/><rect id="path_435" x="62.7" y="98.47" width="4.25" height="4.25" ry=".37795"/><rect id="path_436" x="67.81" y="98.47" width="4.25" height="4.25" ry=".37795"/><rect id="path_437" x="72.92" y="98.47" width="4.25" height="4.25" ry=".37795"/><rect id="path_438" x="78.03" y="98.47" width="4.25" height="4.25" ry=".37795"/><rect id="path_439" x="83.14" y="98.47" width="4.25" height="4.25" ry=".37795"/><rect id="path_440" x="88.25" y="98.47" width="4.25" height="4.25" ry=".37795"/><rect id="path_432" x="47.37" y="98.47" width="4.25" height="4.25" ry=".37795"/><rect id="path_433" x="52.48" y="98.47" width="4.25" height="4.25" ry=".37795"/><rect id="path_441" x="93.36" y="98.47" width="4.25" height="4.25" ry=".37795"/><rect id="path_442" x="98.47" y="98.47" width="4.25" height="4.25" ry=".37795"/><rect id="path_430" x="37.15" y="98.47" width="4.25" height="4.25" ry=".37795"/><rect id="path_431" x="42.26" y="98.47" width="4.25" height="4.25" ry=".37795"/><rect id="path_443" x="103.58" y="98.47" width="4.25" height="4.25" ry=".37795"/><rect id="path_444" x="108.69" y="98.47" width="4.25" height="4.25" ry=".37795"/><rect id="path_429" x="32.04" y="98.47" width="4.25" height="4.25" ry=".37795"/><rect id="path_445" x="113.8" y="98.47" width="4.25" height="4.25" ry=".37795"/><rect id="path_428" x="26.93" y="98.47" width="4.25" height="4.25" ry=".37795"/><rect id="path_446" x="118.91" y="98.47" width="4.25" height="4.25" ry=".37795"/><rect id="path_427" x="21.82" y="98.47" width="4.25" height="4.25" ry=".37795"/><rect id="path_447" x="124.02" y="98.47" width="4.25" height="4.25" ry=".37795"/><rect id="path_426" x="16.71" y="98.47" width="4.25" height="4.25" ry=".37795"/><rect id="path_448" x="129.13" y="98.47" width="4.25" height="4.25" ry=".37795"/><rect id="path_209" x="57.59" y="52.48" width="4.25" height="4.25" ry=".37795"/><rect id="path_210" x="62.7" y="52.48" width="4.25" height="4.25" ry=".37795"/><rect id="path_211" x="67.81" y="52.48" width="4.25" height="4.25" ry=".37795"/><rect id="path_212" x="72.92" y="52.48" width="4.25" height="4.25" ry=".37795"/><rect id="path_213" x="78.03" y="52.48" width="4.25" height="4.25" ry=".37795"/><rect id="path_214" x="83.14" y="52.48" width="4.25" height="4.25" ry=".37795"/><rect id="path_215" x="88.25" y="52.48" width="4.25" height="4.25" ry=".37795"/><rect id="path_207" x="47.37" y="52.48" width="4.25" height="4.25" ry=".37795"/><rect id="path_208" x="52.48" y="52.48" width="4.25" height="4.25" ry=".37795"/><rect id="path_216" x="93.36" y="52.48" width="4.25" height="4.25" ry=".37795"/><rect id="path_217" x="98.47" y="52.48" width="4.25" height="4.25" ry=".37795"/><rect id="path_205" x="37.15" y="52.48" width="4.25" height="4.25" ry=".37795"/><rect id="path_206" x="42.26" y="52.48" width="4.25" height="4.25" ry=".37795"/><rect id="path_218" x="103.58" y="52.48" width="4.25" height="4.25" ry=".37795"/><rect id="path_219" x="108.69" y="52.48" width="4.25" height="4.25" ry=".37795"/><rect id="path_204" x="32.04" y="52.48" width="4.25" height="4.25" ry=".37795"/><rect id="path_220" x="113.8" y="52.48" width="4.25" height="4.25" ry=".37795"/><rect id="path_203" x="26.93" y="52.48" width="4.25" height="4.25" ry=".37795"/><rect id="path_221" x="118.91" y="52.48" width="4.25" height="4.25" ry=".37795"/><rect id="path_202" x="21.82" y="52.48" width="4.25" height="4.25" ry=".37795"/><rect id="path_222" x="124.02" y="52.48" width="4.25" height="4.25" ry=".37795"/><rect id="path_201" x="16.71" y="52.48" width="4.25" height="4.25" ry=".37795"/><rect id="path_223" x="129.13" y="52.48" width="4.25" height="4.25" ry=".37795"/><rect id="path_234" x="57.59" y="57.59" width="4.25" height="4.25" ry=".37795"/><rect id="path_235" x="62.7" y="57.59" width="4.25" height="4.25" ry=".37795"/><rect id="path_236" x="67.81" y="57.59" width="4.25" height="4.25" ry=".37795"/><rect id="path_237" x="72.92" y="57.59" width="4.25" height="4.25" ry=".37795"/><rect id="path_238" x="78.03" y="57.59" width="4.25" height="4.25" ry=".37795"/><rect id="path_239" x="83.14" y="57.59" width="4.25" height="4.25" ry=".37795"/><rect id="path_240" x="88.25" y="57.59" width="4.25" height="4.25" ry=".37795"/><rect id="path_232" x="47.37" y="57.59" width="4.25" height="4.25" ry=".37795"/><rect id="path_233" x="52.48" y="57.59" width="4.25" height="4.25" ry=".37795"/><rect id="path_241" x="93.36" y="57.59" width="4.25" height="4.25" ry=".37795"/><rect id="path_242" x="98.47" y="57.59" width="4.25" height="4.25" ry=".37795"/><rect id="path_230" x="37.15" y="57.59" width="4.25" height="4.25" ry=".37795"/><rect id="path_231" x="42.26" y="57.59" width="4.25" height="4.25" ry=".37795"/><rect id="path_243" x="103.58" y="57.59" width="4.25" height="4.25" ry=".37795"/><rect id="path_244" x="108.69" y="57.59" width="4.25" height="4.25" ry=".37795"/><rect id="path_229" x="32.04" y="57.59" width="4.25" height="4.25" ry=".37795"/><rect id="path_245" x="113.8" y="57.59" width="4.25" height="4.25" ry=".37795"/><rect id="path_228" x="26.93" y="57.59" width="4.25" height="4.25" ry=".37795"/><rect id="path_246" x="118.91" y="57.59" width="4.25" height="4.25" ry=".37795"/><rect id="path_227" x="21.82" y="57.59" width="4.25" height="4.25" ry=".37795"/><rect id="path_247" x="124.02" y="57.59" width="4.25" height="4.25" ry=".37795"/><rect id="path_226" x="16.71" y="57.59" width="4.25" height="4.25" ry=".37795"/><rect id="path_248" x="129.13" y="57.59" width="4.25" height="4.25" ry=".37795"/><rect id="path_225" x="11.6" y="57.59" width="4.25" height="4.25" ry=".37795"/><rect id="path_249" x="134.24" y="57.59" width="4.25" height="4.25" ry=".37795"/><rect id="path_259" x="57.59" y="62.7" width="4.25" height="4.25" ry=".37795"/><rect id="path_260" x="62.7" y="62.7" width="4.25" height="4.25" ry=".37795"/><rect id="path_261" x="67.81" y="62.7" width="4.25" height="4.25" ry=".37795"/><rect id="path_262" x="72.92" y="62.7" width="4.25" height="4.25" ry=".37795"/><rect id="path_263" x="78.03" y="62.7" width="4.25" height="4.25" ry=".37795"/><rect id="path_264" x="83.14" y="62.7" width="4.25" height="4.25" ry=".37795"/><rect id="path_265" x="88.25" y="62.7" width="4.25" height="4.25" ry=".37795"/><rect id="path_257" x="47.37" y="62.7" width="4.25" height="4.25" ry=".37795"/><rect id="path_258" x="52.48" y="62.7" width="4.25" height="4.25" ry=".37795"/><rect id="path_266" x="93.36" y="62.7" width="4.25" height="4.25" ry=".37795"/><rect id="path_267" x="98.47" y="62.7" width="4.25" height="4.25" ry=".37795"/><rect id="path_255" x="37.15" y="62.7" width="4.25" height="4.25" ry=".37795"/><rect id="path_256" x="42.26" y="62.7" width="4.25" height="4.25" ry=".37795"/><rect id="path_268" x="103.58" y="62.7" width="4.25" height="4.25" ry=".37795"/><rect id="path_269" x="108.69" y="62.7" width="4.25" height="4.25" ry=".37795"/><rect id="path_254" x="32.04" y="62.7" width="4.25" height="4.25" ry=".37795"/><rect id="path_270" x="113.8" y="62.7" width="4.25" height="4.25" ry=".37795"/><rect id="path_253" x="26.93" y="62.7" width="4.25" height="4.25" ry=".37795"/><rect id="path_271" x="118.91" y="62.7" width="4.25" height="4.25" ry=".37795"/><rect id="path_252" x="21.82" y="62.7" width="4.25" height="4.25" ry=".37795"/><rect id="path_272" x="124.02" y="62.7" width="4.25" height="4.25" ry=".37795"/><rect id="path_251" x="16.71" y="62.7" width="4.25" height="4.25" ry=".37795"/><rect id="path_273" x="129.13" y="62.7" width="4.25" height="4.25" ry=".37795"/><rect id="path_250" x="11.6" y="62.7" width="4.25" height="4.25" ry=".37795"/><rect id="path_274" x="134.24" y="62.7" width="4.25" height="4.25" ry=".37795"/><rect id="path_284" x="57.59" y="67.81" width="4.25" height="4.25" ry=".37795"/><rect id="path_285" x="62.7" y="67.81" width="4.25" height="4.25" ry=".37795"/><rect id="path_286" x="67.81" y="67.81" width="4.25" height="4.25" ry=".37795"/><rect id="path_287" x="72.92" y="67.81" width="4.25" height="4.25" ry=".37795"/><rect id="path_288" x="78.03" y="67.81" width="4.25" height="4.25" ry=".37795"/><rect id="path_289" x="83.14" y="67.81" width="4.25" height="4.25" ry=".37795"/><rect id="path_290" x="88.25" y="67.81" width="4.25" height="4.25" ry=".37795"/><rect id="path_282" x="47.37" y="67.81" width="4.25" height="4.25" ry=".37795"/><rect id="path_283" x="52.48" y="67.81" width="4.25" height="4.25" ry=".37795"/><rect id="path_291" x="93.36" y="67.81" width="4.25" height="4.25" ry=".37795"/><rect id="path_292" x="98.47" y="67.81" width="4.25" height="4.25" ry=".37795"/><rect id="path_280" x="37.15" y="67.81" width="4.25" height="4.25" ry=".37795"/><rect id="path_281" x="42.26" y="67.81" width="4.25" height="4.25" ry=".37795"/><rect id="path_293" x="103.58" y="67.81" width="4.25" height="4.25" ry=".37795"/><rect id="path_294" x="108.69" y="67.81" width="4.25" height="4.25" ry=".37795"/><rect id="path_279" x="32.04" y="67.81" width="4.25" height="4.25" ry=".37795"/><rect id="path_295" x="113.8" y="67.81" width="4.25" height="4.25" ry=".37795"/><rect id="path_278" x="26.93" y="67.81" width="4.25" height="4.25" ry=".37795"/><rect id="path_296" x="118.91" y="67.81" width="4.25" height="4.25" ry=".37795"/><rect id="path_277" x="21.82" y="67.81" width="4.25" height="4.25" ry=".37795"/><rect id="path_297" x="124.02" y="67.81" width="4.25" height="4.25" ry=".37795"/><rect id="path_276" x="16.71" y="67.81" width="4.25" height="4.25" ry=".37795"/><rect id="path_298" x="129.13" y="67.81" width="4.25" height="4.25" ry=".37795"/><rect id="path_275" x="11.6" y="67.81" width="4.25" height="4.25" ry=".37795"/><rect id="path_299" x="134.24" y="67.81" width="4.25" height="4.25" ry=".37795"/><rect id="path_309" x="57.59" y="72.92" width="4.25" height="4.25" ry=".37795"/><rect id="path_310" x="62.7" y="72.92" width="4.25" height="4.25" ry=".37795"/><rect id="path_311" x="67.81" y="72.92" width="4.25" height="4.25" ry=".37795"/><rect id="path_312" x="72.92" y="72.92" width="4.25" height="4.25" ry=".37795"/><rect id="path_313" x="78.03" y="72.92" width="4.25" height="4.25" ry=".37795"/><rect id="path_314" x="83.14" y="72.92" width="4.25" height="4.25" ry=".37795"/><rect id="path_315" x="88.25" y="72.92" width="4.25" height="4.25" ry=".37795"/><rect id="path_307" x="47.37" y="72.92" width="4.25" height="4.25" ry=".37795"/><rect id="path_308" x="52.48" y="72.92" width="4.25" height="4.25" ry=".37795"/><rect id="path_316" x="93.36" y="72.92" width="4.25" height="4.25" ry=".37795"/><rect id="path_317" x="98.47" y="72.92" width="4.25" height="4.25" ry=".37795"/><rect id="path_305" x="37.15" y="72.92" width="4.25" height="4.25" ry=".37795"/><rect id="path_306" x="42.26" y="72.92" width="4.25" height="4.25" ry=".37795"/><rect id="path_318" x="103.58" y="72.92" width="4.25" height="4.25" ry=".37795"/><rect id="path_319" x="108.69" y="72.92" width="4.25" height="4.25" ry=".37795"/><rect id="path_304" x="32.04" y="72.92" width="4.25" height="4.25" ry=".37795"/><rect id="path_320" x="113.8" y="72.92" width="4.25" height="4.25" ry=".37795"/><rect id="path_303" x="26.93" y="72.92" width="4.25" height="4.25" ry=".37795"/><rect id="path_321" x="118.91" y="72.92" width="4.25" height="4.25" ry=".37795"/><rect id="path_302" x="21.82" y="72.92" width="4.25" height="4.25" ry=".37795"/><rect id="path_322" x="124.02" y="72.92" width="4.25" height="4.25" ry=".37795"/><rect id="path_301" x="16.71" y="72.92" width="4.25" height="4.25" ry=".37795"/><rect id="path_323" x="129.13" y="72.92" width="4.25" height="4.25" ry=".37795"/><rect id="path_300" x="11.6" y="72.92" width="4.25" height="4.25" ry=".37795"/><rect id="path_324" x="134.24" y="72.92" width="4.25" height="4.25" ry=".37795"/><rect id="path_334" x="57.59" y="78.03" width="4.25" height="4.25" ry=".37795"/><rect id="path_335" x="62.7" y="78.03" width="4.25" height="4.25" ry=".37795"/><rect id="path_336" x="67.81" y="78.03" width="4.25" height="4.25" ry=".37795"/><rect id="path_337" x="72.92" y="78.03" width="4.25" height="4.25" ry=".37795"/><rect id="path_338" x="78.03" y="78.03" width="4.25" height="4.25" ry=".37795"/><rect id="path_339" x="83.14" y="78.03" width="4.25" height="4.25" ry=".37795"/><rect id="path_340" x="88.25" y="78.03" width="4.25" height="4.25" ry=".37795"/><rect id="path_332" x="47.37" y="78.03" width="4.25" height="4.25" ry=".37795"/><rect id="path_333" x="52.48" y="78.03" width="4.25" height="4.25" ry=".37795"/><rect id="path_341" x="93.36" y="78.03" width="4.25" height="4.25" ry=".37795"/><rect id="path_342" x="98.47" y="78.03" width="4.25" height="4.25" ry=".37795"/><rect id="path_330" x="37.15" y="78.03" width="4.25" height="4.25" ry=".37795"/><rect id="path_331" x="42.26" y="78.03" width="4.25" height="4.25" ry=".37795"/><rect id="path_343" x="103.58" y="78.03" width="4.25" height="4.25" ry=".37795"/><rect id="path_344" x="108.69" y="78.03" width="4.25" height="4.25" ry=".37795"/><rect id="path_329" x="32.04" y="78.03" width="4.25" height="4.25" ry=".37795"/><rect id="path_345" x="113.8" y="78.03" width="4.25" height="4.25" ry=".37795"/><rect id="path_328" x="26.93" y="78.03" width="4.25" height="4.25" ry=".37795"/><rect id="path_346" x="118.91" y="78.03" width="4.25" height="4.25" ry=".37795"/><rect id="path_327" x="21.82" y="78.03" width="4.25" height="4.25" ry=".37795"/><rect id="path_347" x="124.02" y="78.03" width="4.25" height="4.25" ry=".37795"/><rect id="path_326" x="16.71" y="78.03" width="4.25" height="4.25" ry=".37795"/><rect id="path_348" x="129.13" y="78.03" width="4.25" height="4.25" ry=".37795"/><rect id="path_325" x="11.6" y="78.03" width="4.25" height="4.25" ry=".37795"/><rect id="path_349" x="134.24" y="78.03" width="4.25" height="4.25" ry=".37795"/><rect id="path_359" x="57.59" y="83.14" width="4.25" height="4.25" ry=".37795"/><rect id="path_360" x="62.7" y="83.14" width="4.25" height="4.25" ry=".37795"/><rect id="path_361" x="67.81" y="83.14" width="4.25" height="4.25" ry=".37795"/><rect id="path_362" x="72.92" y="83.14" width="4.25" height="4.25" ry=".37795"/><rect id="path_363" x="78.03" y="83.14" width="4.25" height="4.25" ry=".37795"/><rect id="path_364" x="83.14" y="83.14" width="4.25" height="4.25" ry=".37795"/><rect id="path_365" x="88.25" y="83.14" width="4.25" height="4.25" ry=".37795"/><rect id="path_357" x="47.37" y="83.14" width="4.25" height="4.25" ry=".37795"/><rect id="path_358" x="52.48" y="83.14" width="4.25" height="4.25" ry=".37795"/><rect id="path_366" x="93.36" y="83.14" width="4.25" height="4.25" ry=".37795"/><rect id="path_367" x="98.47" y="83.14" width="4.25" height="4.25" ry=".37795"/><rect id="path_355" x="37.15" y="83.14" width="4.25" height="4.25" ry=".37795"/><rect id="path_356" x="42.26" y="83.14" width="4.25" height="4.25" ry=".37795"/><rect id="path_368" x="103.58" y="83.14" width="4.25" height="4.25" ry=".37795"/><rect id="path_369" x="108.69" y="83.14" width="4.25" height="4.25" ry=".37795"/><rect id="path_354" x="32.04" y="83.14" width="4.25" height="4.25" ry=".37795"/><rect id="path_370" x="113.8" y="83.14" width="4.25" height="4.25" ry=".37795"/><rect id="path_353" x="26.93" y="83.14" width="4.25" height="4.25" ry=".37795"/><rect id="path_371" x="118.91" y="83.14" width="4.25" height="4.25" ry=".37795"/><rect id="path_352" x="21.82" y="83.14" width="4.25" height="4.25" ry=".37795"/><rect id="path_372" x="124.02" y="83.14" width="4.25" height="4.25" ry=".37795"/><rect id="path_351" x="16.71" y="83.14" width="4.25" height="4.25" ry=".37795"/><rect id="path_373" x="129.13" y="83.14" width="4.25" height="4.25" ry=".37795"/><rect id="path_350" x="11.6" y="83.14" width="4.25" height="4.25" ry=".37795"/><rect id="path_374" x="134.24" y="83.14" width="4.25" height="4.25" ry=".37795"/><rect id="path_384" x="57.59" y="88.25" width="4.25" height="4.25" ry=".37795"/><rect id="path_385" x="62.7" y="88.25" width="4.25" height="4.25" ry=".37795"/><rect id="path_386" x="67.81" y="88.25" width="4.25" height="4.25" ry=".37795"/><rect id="path_387" x="72.92" y="88.25" width="4.25" height="4.25" ry=".37795"/><rect id="path_388" x="78.03" y="88.25" width="4.25" height="4.25" ry=".37795"/><rect id="path_389" x="83.14" y="88.25" width="4.25" height="4.25" ry=".37795"/><rect id="path_390" x="88.25" y="88.25" width="4.25" height="4.25" ry=".37795"/><rect id="path_382" x="47.37" y="88.25" width="4.25" height="4.25" ry=".37795"/><rect id="path_383" x="52.48" y="88.25" width="4.25" height="4.25" ry=".37795"/><rect id="path_391" x="93.36" y="88.25" width="4.25" height="4.25" ry=".37795"/><rect id="path_392" x="98.47" y="88.25" width="4.25" height="4.25" ry=".37795"/><rect id="path_380" x="37.15" y="88.25" width="4.25" height="4.25" ry=".37795"/><rect id="path_381" x="42.26" y="88.25" width="4.25" height="4.25" ry=".37795"/><rect id="path_393" x="103.58" y="88.25" width="4.25" height="4.25" ry=".37795"/><rect id="path_394" x="108.69" y="88.25" width="4.25" height="4.25" ry=".37795"/><rect id="path_379" x="32.04" y="88.25" width="4.25" height="4.25" ry=".37795"/><rect id="path_395" x="113.8" y="88.25" width="4.25" height="4.25" ry=".37795"/><rect id="path_378" x="26.93" y="88.25" width="4.25" height="4.25" ry=".37795"/><rect id="path_396" x="118.91" y="88.25" width="4.25" height="4.25" ry=".37795"/><rect id="path_377" x="21.82" y="88.25" width="4.25" height="4.25" ry=".37795"/><rect id="path_397" x="124.02" y="88.25" width="4.25" height="4.25" ry=".37795"/><rect id="path_376" x="16.71" y="88.25" width="4.25" height="4.25" ry=".37795"/><rect id="path_398" x="129.13" y="88.25" width="4.25" height="4.25" ry=".37795"/><rect id="path_375" x="11.6" y="88.25" width="4.25" height="4.25" ry=".37795"/><rect id="path_399" x="134.24" y="88.25" width="4.25" height="4.25" ry=".37795"/><rect id="path_534" x="57.59" y="118.91" width="4.25" height="4.25" ry=".37795"/><rect id="path_535" x="62.7" y="118.91" width="4.25" height="4.25" ry=".37795"/><rect id="path_536" x="67.81" y="118.91" width="4.25" height="4.25" ry=".37795"/><rect id="path_537" x="72.92" y="118.91" width="4.25" height="4.25" ry=".37795"/><rect id="path_538" x="78.03" y="118.91" width="4.25" height="4.25" ry=".37795"/><rect id="path_539" x="83.14" y="118.91" width="4.25" height="4.25" ry=".37795"/><rect id="path_540" x="88.25" y="118.91" width="4.25" height="4.25" ry=".37795"/><rect id="path_532" x="47.37" y="118.91" width="4.25" height="4.25" ry=".37795"/><rect id="path_533" x="52.48" y="118.91" width="4.25" height="4.25" ry=".37795"/><rect id="path_541" x="93.36" y="118.91" width="4.25" height="4.25" ry=".37795"/><rect id="path_542" x="98.47" y="118.91" width="4.25" height="4.25" ry=".37795"/><rect id="path_530" x="37.15" y="118.91" width="4.25" height="4.25" ry=".37795"/><rect id="path_531" x="42.26" y="118.91" width="4.25" height="4.25" ry=".37795"/><rect id="path_543" x="103.58" y="118.91" width="4.25" height="4.25" ry=".37795"/><rect id="path_544" x="108.69" y="118.91" width="4.25" height="4.25" ry=".37795"/><rect id="path_529" x="32.04" y="118.91" width="4.25" height="4.25" ry=".37795"/><rect id="path_545" x="113.8" y="118.91" width="4.25" height="4.25" ry=".37795"/><rect id="path_609" x="57.59" y="134.24" width="4.25" height="4.25" ry=".37795"/><rect id="path_610" x="62.7" y="134.24" width="4.25" height="4.25" ry=".37795"/><rect id="path_611" x="67.81" y="134.24" width="4.25" height="4.25" ry=".37795"/><rect id="path_612" x="72.92" y="134.24" width="4.25" height="4.25" ry=".37795"/><rect id="path_613" x="78.03" y="134.24" width="4.25" height="4.25" ry=".37795"/><rect id="path_614" x="83.14" y="134.24" width="4.25" height="4.25" ry=".37795"/><rect id="path_615" x="88.25" y="134.24" width="4.25" height="4.25" ry=".37795"/></g></svg>
